Patient4_TMGait_0pt7_02_left_36_GRF.mot
version=1
nRows=78
nColumns=19
inDegrees=no
endheader
time	F1x	F1y	F1z	M1x	M1y	M1z	F2x	F2y	F2z	M2x	M2y	M2z	EC1x	EC1y	EC1z	EC2x	EC2y	EC2z
41.19	3.7922	8.6564	12.0423	-4.8663	-8.1064	8.1251	-24.2778	724.1206	-43.3267	264.7967	66.6915	747.4633	-0.0592	0.0182	-0.0073	-0.0462	0.0165	0.9585
41.2014	2.5069	7.0234	8.1929	-3.7081	-5.5535	6.7299	-19.6214	731.9974	-51.4345	269.709	69.7921	753.7808	-0.0592	0.0182	-0.0073	-0.0462	0.0165	0.9585
41.2127	1.4384	5.7348	4.9406	-2.7603	-3.393	5.663	-15.612	741.2795	-58.5944	274.8941	72.4757	760.747	-0.0592	0.0182	-0.0073	-0.0462	0.0165	0.9585
41.2241	0.63856	4.8362	2.4661	-2.0683	-1.7483	4.9681	-12.4954	751.5106	-64.3308	280.0428	74.5554	767.984	-0.0592	0.0182	-0.0073	-0.0462	0.0165	0.9585
41.2354	0.089327	4.2932	0.75375	-1.6194	-0.61456	4.6039	-10.2666	762.0715	-68.5528	284.9006	75.9832	775.0148	-0.0592	0.0182	-0.0073	-0.0462	0.0165	0.9585
41.2468	-0.25599	4.0468	-0.29514	-1.3704	0.066459	4.4992	-8.8016	772.21	-71.3985	289.2291	76.8063	781.2489	-0.0592	0.0182	-0.0073	-0.0462	0.0165	0.9585
41.2581	-0.45068	3.9801	-0.84035	-1.2552	0.40357	4.5334	-7.9202	781.1405	-73.0919	292.8035	77.0928	786.0532	-0.0592	0.0182	-0.0073	-0.0462	0.0165	0.9585
41.2695	-0.55445	3.9836	-1.0269	-1.2092	0.49186	4.58	-7.3907	788.1008	-73.8878	295.4136	76.9163	788.7877	-0.0592	0.0182	-0.0073	-0.0462	0.0165	0.9585
41.2809	-0.60698	3.9056	-0.99457	-1.1603	0.43108	4.4916	-7.0062	792.5032	-74.0039	296.9104	76.3221	788.9422	-0.0592	0.0182	-0.0073	-0.0462	0.0165	0.9585
41.2922	-0.63949	3.5921	-0.84736	-1.0417	0.2922	4.1086	-6.5213	794.0429	-73.6227	297.2348	75.3319	786.2533	-0.0592	0.0182	-0.0073	-0.0462	0.0165	0.9585
41.3036	-0.67161	2.88	-0.65535	-0.78714	0.12001	3.2562	-5.7787	792.6769	-72.8843	296.4153	73.9667	780.708	-0.0592	0.0182	-0.0073	-0.0462	0.0165	0.9585
41.3149	-0.69954	1.6195	-0.46998	-0.33524	-0.044461	1.7819	-4.6305	788.6565	-71.909	294.5744	72.2549	772.5469	-0.0592	0.0182	-0.0073	-0.0462	0.0165	0.9585
41.3263	-0.71316	-0.28462	-0.31755	0.35474	-0.17017	-0.4233	-3.0257	782.4408	-70.8072	291.8996	70.2579	762.2106	-0.0592	0.0182	-0.0073	-0.0462	0.0165	0.9585
41.3376	-0.67316	-2.8325	-0.22282	1.2853	-0.21464	-3.3644	-0.92445	774.6077	-69.6674	288.6149	68.0355	750.2381	-0.0592	0.0182	-0.0073	-0.0462	0.0165	0.9585
41.349	-0.5174	-5.8703	-0.20168	2.3972	-0.13759	-6.8646	1.6449	765.7743	-68.5793	284.9456	65.6749	737.2308	-0.0592	0.0182	-0.0073	-0.0462	0.0165	0.9585
41.3604	-0.18053	-8.994	-0.27655	3.5359	0.11199	-10.473	4.6287	756.416	-67.6008	281.0649	63.2476	723.6611	-0.0592	0.0182	-0.0073	-0.0462	0.0165	0.9585
41.3717	0.42569	-11.4342	-0.47428	4.4105	0.59499	-13.3128	7.967	746.8676	-66.7991	277.0861	60.8421	709.9032	-0.0592	0.0182	-0.0073	-0.0462	0.0165	0.9585
41.3831	1.3789	-11.9543	-0.82117	4.5541	1.3672	-13.9663	11.5552	737.25	-66.2116	273.0488	58.5281	696.1191	-0.0592	0.0182	-0.0073	-0.0462	0.0165	0.9585
41.3944	2.7277	-8.7525	-1.3365	3.2918	2.4643	-10.3697	15.2818	727.5344	-65.8627	268.9361	56.3713	682.3618	-0.0592	0.0182	-0.0073	-0.0462	0.0165	0.9585
41.4058	4.4723	0.52625	-2.0025	-0.25438	3.864	0.16317	19.0237	717.5143	-65.7314	264.6756	54.3998	668.5197	-0.0592	0.0182	-0.0073	-0.0462	0.0165	0.9585
41.4171	6.4843	18.6746	-2.7682	-7.1227	5.4573	20.8075	22.6466	706.8501	-65.7484	260.152	52.6092	654.362	-0.0592	0.0182	-0.0073	-0.0462	0.0165	0.9585
41.4285	8.4563	48.5145	-3.4934	-18.3598	6.9693	54.7877	26.0252	695.0213	-65.7879	255.1958	50.9444	639.4801	-0.0592	0.0182	-0.0073	-0.0462	0.0165	0.9585
41.4399	9.8293	92.2508	-3.9599	-34.7709	7.9388	104.6373	29.0221	681.3017	-65.6404	249.5707	49.2776	623.2918	-0.0592	0.0182	-0.0073	-0.0462	0.0165	0.9585
41.4512	9.7139	150.3351	-3.8098	-56.4931	7.6238	170.8814	31.4948	664.7125	-65.0114	242.9551	47.4077	604.9696	-0.0592	0.0182	-0.0073	-0.0462	0.0165	0.9585
41.4626	6.8698	219.9908	-2.5582	-82.4454	5.0152	250.3632	33.2999	644.0444	-63.5531	234.9443	45.0923	583.4666	-0.0592	0.0182	-0.0073	-0.0462	0.0165	0.9585
41.4739	0.33838	294.161	0.32921	-109.9402	-0.83027	335.0289	34.3033	617.9861	-60.935	225.0948	42.1059	557.6303	-0.0592	0.0182	-0.0073	-0.0462	0.0165	0.9585
41.4853	-8.9226	362.4632	5.6084	-135.1	-10.3212	412.8411	34.4259	585.4738	-56.9597	213.045	38.324	526.4989	-0.0592	0.0182	-0.0073	-0.0462	0.0165	0.9585
41.4966	-18.5884	417.6136	13.2608	-155.2473	-22.4926	475.1256	33.6747	546.0622	-51.7002	198.6377	33.83	489.6252	-0.0592	0.0182	-0.0073	-0.0462	0.0165	0.9585
41.508	-27.6328	459.8478	21.8867	-170.4873	-35.4288	521.8532	32.0966	500.197	-45.494	181.9984	28.8938	447.3799	-0.0592	0.0182	-0.0073	-0.0462	0.0165	0.9585
41.5194	-35.1135	493.2845	30.6172	-182.3975	-47.8101	557.5789	29.8642	448.8549	-38.9562	163.4309	23.9759	400.5943	-0.0592	0.0182	-0.0073	-0.0462	0.0165	0.9585
41.5307	-40.7014	522.5975	38.2962	-192.7837	-58.256	587.6702	27.1737	393.4254	-32.6522	143.3874	19.4667	350.486	-0.0592	0.0182	-0.0073	-0.0462	0.0165	0.9585
41.5421	-44.0403	551.0829	44.4105	-202.8985	-66.0767	615.8917	24.1788	335.5997	-26.9088	122.447	15.5694	298.5208	-0.0592	0.0182	-0.0073	-0.0462	0.0165	0.9585
41.5534	-45.1119	579.8059	48.6863	-213.1559	-70.9762	643.6246	20.9265	277.2885	-21.8638	101.2908	12.3592	246.3665	-0.0592	0.0182	-0.0073	-0.0462	0.0165	0.9585
41.5648	-44.0669	608.5365	51.2811	-223.4387	-73.1975	670.6288	17.4469	220.6509	-17.4994	80.7027	9.7994	195.9025	-0.0592	0.0182	-0.0073	-0.0462	0.0165	0.9585
41.5761	-41.2995	636.4063	52.7908	-233.3596	-73.5402	696.2224	13.7787	167.8917	-13.7979	61.4925	7.8526	149.0402	-0.0592	0.0182	-0.0073	-0.0462	0.0165	0.9585
41.5875	-37.3046	662.6181	53.7415	-242.5526	-72.7849	719.6804	10.1235	121.11	-10.7068	44.4268	6.4001	107.5836	-0.0592	0.0182	-0.0073	-0.0462	0.0165	0.9585
41.5989	-32.7469	686.5725	54.7562	-250.7206	-71.837	740.5949	6.8015	81.8161	-8.19	30.0654	5.3044	72.8089	-0.0592	0.0182	-0.0073	-0.0462	0.0165	0.9585
41.6102	-28.0912	707.6475	56.0835	-257.6042	-71.1567	758.4544	4.0733	50.6717	-6.1168	18.6666	4.3697	45.2579	-0.0592	0.0182	-0.0073	-0.0462	0.0165	0.9585
41.6216	-23.9186	725.4045	57.8421	-263.0278	-71.0681	772.922	2.0503	27.5287	-4.3715	10.1881	3.4714	24.7705	-0.0592	0.0182	-0.0073	-0.0462	0.0165	0.9585
41.6329	-20.476	739.5518	59.7912	-266.9293	-71.4185	783.7659	0.64849	11.5962	-2.877	4.3494	2.5748	10.6565	-0.0592	0.0182	-0.0073	-0.0462	0.0165	0.9585
41.6443	-17.853	750.2813	61.5377	-269.4273	-71.8364	791.2571	-0.19943	1.7047	-1.6466	0.72096	1.7275	1.8854	-0.0592	0.0182	-0.0073	-0.0462	0.0165	0.9585
41.6556	-15.9861	757.7199	62.8056	-270.6455	-72.0091	795.5117	-0.66349	-3.5557	-0.73359	-1.2132	1.0341	-2.7582	-0.0592	0.0182	-0.0073	-0.0462	0.0165	0.9585
41.667	-14.7229	762.0034	63.4088	-270.6977	-71.7021	796.6825	-0.82662	-5.5797	-0.12737	-1.9651	0.52109	-4.5267	-0.0592	0.0182	-0.0073	-0.0462	0.0165	0.9585
41.6784	-13.8657	763.2211	63.5217	-269.6693	-71.022	794.7955	-0.84074	-5.5669	0.24737	-1.9752	0.16772	-4.478	-0.0592	0.0182	-0.0073	-0.0462	0.0165	0.9585
41.6897	-13.2339	761.666	63.2371	-267.7131	-70.0048	790.0797	-0.75093	-4.4743	0.43331	-1.5918	-0.04647	-3.4842	-0.0592	0.0182	-0.0073	-0.0462	0.0165	0.9585
41.7011	-12.5863	757.9179	62.8022	-265.0657	-68.8277	783.0791	-0.65266	-2.9283	0.50406	-1.0463	-0.16533	-2.0769	-0.0592	0.0182	-0.0073	-0.0462	0.0165	0.9585
41.7124	-11.8532	752.7172	62.2736	-262.0269	-67.5289	774.4983	-0.54359	-1.3837	0.49609	-0.49883	-0.21555	-0.68261	-0.0592	0.0182	-0.0073	-0.0462	0.0165	0.9585
41.7238	-10.9123	746.9774	61.7193	-258.9378	-66.1448	765.2308	-0.46397	-0.02858	0.45358	-0.019971	-0.22579	0.551	-0.0592	0.0182	-0.0073	-0.0462	0.0165	0.9585
41.7351	-9.7248	741.5063	61.1276	-256.0983	-64.6492	756.0957	-0.38047	0.99734	0.39231	0.34703	-0.21548	1.4559	-0.0592	0.0182	-0.0073	-0.0462	0.0165	0.9585
41.7465	-8.2821	736.9419	60.4647	-253.7321	-63.004	747.7099	-0.3302	1.7227	0.32747	0.60818	-0.18721	2.0885	-0.0592	0.0182	-0.0073	-0.0462	0.0165	0.9585
41.7579	-6.5881	733.6622	59.7744	-251.9573	-61.2499	740.4857	-0.26883	2.1546	0.27047	0.77068	-0.16321	2.425	-0.0592	0.0182	-0.0073	-0.0462	0.0165	0.9585
41.7692	-4.6929	731.7956	59.0044	-250.8031	-59.3546	734.5561	-0.24367	2.3851	0.21878	0.86384	-0.13128	2.5875	-0.0592	0.0182	-0.0073	-0.0462	0.0165	0.9585
41.7806	-2.6765	731.2933	58.2316	-250.2277	-57.418	729.9043	-0.20423	2.4532	0.17187	0.90557	-0.10526	2.5855	-0.0592	0.0182	-0.0073	-0.0462	0.0165	0.9585
41.7919	-0.57483	731.9739	57.4452	-250.1499	-55.4473	726.3795	-0.20579	2.4345	0.12673	0.91907	-0.067715	2.5258	-0.0592	0.0182	-0.0073	-0.0462	0.0165	0.9585
41.8033	1.5285	733.6082	56.7547	-250.4678	-53.5704	723.763	-0.20239	2.3592	0.08866	0.9169	-0.03567	2.4132	-0.0592	0.0182	-0.0073	-0.0462	0.0165	0.9585
41.8146	3.5952	735.9558	56.1749	-251.0779	-51.812	721.8326	-0.23196	2.301	0.05665	0.91769	-0.00045943	2.3528	-0.0592	0.0182	-0.0073	-0.0462	0.0165	0.9585
41.826	5.6262	738.8031	55.7282	-251.8864	-50.1921	720.3738	-0.24645	2.2552	0.040708	0.92277	0.015071	2.3021	-0.0592	0.0182	-0.0073	-0.0462	0.0165	0.9585
41.8374	7.6139	741.9707	55.411	-252.8149	-48.7006	719.1871	-0.28741	2.2748	0.02891	0.9437	0.032559	2.3422	-0.0592	0.0182	-0.0073	-0.0462	0.0165	0.9585
41.8487	9.6372	745.2606	55.1817	-253.7826	-47.2719	718.0582	-0.31063	2.3205	0.030745	0.96991	0.033314	2.4128	-0.0592	0.0182	-0.0073	-0.0462	0.0165	0.9585
41.8601	11.7037	748.4753	55.0996	-254.704	-45.9531	716.7899	-0.3571	2.4061	0.035362	0.99938	0.040188	2.5495	-0.0592	0.0182	-0.0073	-0.0462	0.0165	0.9585
41.8714	13.8432	751.3486	55.1706	-255.4765	-44.7447	715.109	-0.38143	2.4654	0.041655	1.0113	0.051202	2.6525	-0.0592	0.0182	-0.0073	-0.0462	0.0165	0.9585
41.8828	16.0742	753.6185	55.5069	-255.9932	-43.7495	712.7848	-0.42723	2.444	0.035256	0.98362	0.092985	2.6765	-0.0592	0.0182	-0.0073	-0.0462	0.0165	0.9585
41.8941	18.4272	755.0061	56.1281	-256.1568	-42.9806	709.5284	-0.44841	2.2387	0.00032386	0.88032	0.17009	2.4797	-0.0592	0.0182	-0.0073	-0.0462	0.0165	0.9585
41.9055	20.9548	755.3637	57.0672	-255.9181	-42.4573	705.2045	-0.48938	1.7643	-0.06057	0.6665	0.28686	1.9859	-0.0592	0.0182	-0.0073	-0.0462	0.0165	0.9585
41.9169	23.7369	754.7027	58.2571	-255.2959	-42.1013	699.7998	-0.49541	0.89489	-0.16216	0.29761	0.43975	1.0307	-0.0592	0.0182	-0.0073	-0.0462	0.0165	0.9585
41.9282	26.8012	753.2119	59.5993	-254.3734	-41.8127	693.4751	-0.4959	-0.43966	-0.29147	-0.25511	0.61253	-0.45436	-0.0592	0.0182	-0.0073	-0.0462	0.0165	0.9585
41.9396	30.2252	751.2523	60.977	-253.2914	-41.4629	686.5673	-0.4347	-2.3043	-0.44102	-1.0095	0.77243	-2.5629	-0.0592	0.0182	-0.0073	-0.0462	0.0165	0.9585
41.9509	34.0294	749.2739	62.2555	-252.2224	-40.9133	679.4985	-0.31881	-4.6252	-0.57712	-1.9336	0.87327	-5.1885	-0.0592	0.0182	-0.0073	-0.0462	0.0165	0.9585
41.9623	38.2295	747.8127	63.3757	-251.359	-40.0996	672.7583	-0.080536	-7.2026	-0.64211	-2.938	0.83113	-8.1341	-0.0592	0.0182	-0.0073	-0.0462	0.0165	0.9585
41.9736	42.8092	747.3818	64.2919	-250.8814	-38.9762	666.8292	0.28435	-9.5311	-0.53688	-3.823	0.53506	-10.8153	-0.0592	0.0182	-0.0073	-0.0462	0.0165	0.9585
41.985	47.6878	748.3651	65.0407	-250.9248	-37.5933	662.0557	0.85069	-10.8136	-0.13137	-4.2661	-0.1781	-12.3451	-0.0592	0.0182	-0.0073	-0.0462	0.0165	0.9585
41.9964	52.7543	750.9216	65.6783	-251.5443	-36.0292	658.6106	1.5966	-9.7825	0.72339	-3.7652	-1.4689	-11.262	-0.0592	0.0182	-0.0073	-0.0462	0.0165	0.9585
42.0077	57.8646	754.8814	66.2699	-252.6852	-34.379	656.3827	2.5265	-4.7445	2.1912	-1.6442	-3.5118	-5.6413	-0.0592	0.0182	-0.0073	-0.0462	0.0165	0.9585
42.0191	62.8508	759.7461	66.8572	-254.1778	-32.7288	654.9888	3.5118	6.4484	4.394	2.9416	-6.39	6.9925	-0.0592	0.0182	-0.0073	-0.0462	0.0165	0.9585
42.0304	67.5528	764.5944	67.3837	-255.7123	-31.0835	653.7182	4.3747	26.1076	7.3876	10.9018	-10.0795	29.2726	-0.0592	0.0182	-0.0073	-0.0462	0.0165	0.9585
42.0418	71.8097	768.1459	67.7355	-256.8548	-29.4166	651.5479	4.7705	56.3532	11.055	23.0507	-14.2934	63.6669	-0.0592	0.0182	-0.0073	-0.0462	0.0165	0.9585
42.0531	75.4628	768.7626	67.6903	-257.0558	-27.6189	647.1666	4.2204	98.2842	15.0087	39.7897	-18.3777	111.47	-0.0592	0.0182	-0.0073	-0.0462	0.0165	0.9585
42.0645	78.3736	764.5547	67.0035	-255.6851	-25.5725	639.0829	2.0223	150.9888	18.4413	60.6915	-21.1235	171.7013	-0.0592	0.0182	-0.0073	-0.0462	0.0165	0.9585
